<?xml version="1.0" encoding="utf-8"?>
<!-- Generator: Adobe Illustrator 16.0.0, SVG Export Plug-In . SVG Version: 6.00 Build 0)  -->
<!DOCTYPE svg PUBLIC "-//W3C//DTD SVG 1.1//EN" "http://www.w3.org/Graphics/SVG/1.1/DTD/svg11.dtd">
<svg version="1.1" xmlns="http://www.w3.org/2000/svg" xmlns:xlink="http://www.w3.org/1999/xlink" x="0px" y="0px" width="500px"
	 height="447.111px" viewBox="0 0 500 447.111" enable-background="new 0 0 500 447.111" xml:space="preserve">
<g id="Layer_1">
	
		<radialGradient id="SVGID_1_" cx="13281.8125" cy="7269.0991" r="191.1572" gradientTransform="matrix(-1 0 0 0.2389 13478.5098 -1288.1415)" gradientUnits="userSpaceOnUse">
		<stop  offset="0.0025" style="stop-color:#000000;stop-opacity:0.8"/>
		<stop  offset="0.0223" style="stop-color:#0F0F10;stop-opacity:0.7742"/>
		<stop  offset="0.1999" style="stop-color:#48484A;stop-opacity:0.5427"/>
		<stop  offset="0.3529" style="stop-color:#58595B;stop-opacity:0.3433"/>
		<stop  offset="0.4628" style="stop-color:#5E5F61;stop-opacity:0.2"/>
		<stop  offset="0.502" style="stop-color:#787A7C;stop-opacity:0.1854"/>
		<stop  offset="0.5603" style="stop-color:#999B9D;stop-opacity:0.1637"/>
		<stop  offset="0.6215" style="stop-color:#B6B8BA;stop-opacity:0.1409"/>
		<stop  offset="0.685" style="stop-color:#CFD1D3;stop-opacity:0.1173"/>
		<stop  offset="0.7515" style="stop-color:#E3E4E5;stop-opacity:0.0925"/>
		<stop  offset="0.8223" style="stop-color:#F1F1F2;stop-opacity:0.0661"/>
		<stop  offset="0.9004" style="stop-color:#FAFAFB;stop-opacity:0.0371"/>
		<stop  offset="1" style="stop-color:#FFFFFF;stop-opacity:0"/>
	</radialGradient>
	<path display="none" fill="url(#SVGID_1_)" d="M5.535,448.446c0,25.229,85.583,45.667,191.164,45.667
		c105.573,0,191.162-20.438,191.162-45.667c0-25.222-85.589-45.666-191.162-45.666C91.118,402.78,5.535,423.224,5.535,448.446z"/>
</g>
<g id="Layer_2" display="none">
	<g display="inline">
		<path fill="none" d="M318.062,228.98c-2.874-3.086-5.741-6.168-8.613-9.256c4.037-3.757,8.074-7.52,12.124-11.273
			c0.476-0.434,0.438-0.729,0.023-1.166c-1.703-1.796-3.402-3.605-5.072-5.438c-3.279-3.6-6.704-7.058-9.881-10.745
			c-2.238-2.599-3.854-5.507-4.812-8.792c-1.352-4.627-1.24-9.219,0.323-13.777c1.567-4.598,4.447-8.219,8.323-11.077
			c4.078-3.013,8.663-4.725,13.757-4.772c7.942-0.071,14.119,3.367,18.736,9.75c0.563,0.771,0.618,0.787,1.164,0.007
			c2.009-2.892,4.598-5.024,8.04-5.981c3.728-1.034,7.359-0.609,10.904,0.863c3.255,1.354,5.905,3.505,7.867,6.419
			c1.976,2.94,2.739,6.21,2.183,9.747c-0.035,0.203-0.189,0.447,0.023,0.605c0.186,0.131,0.367-0.053,0.548-0.113
			c0.863-0.297,1.71-0.646,2.584-0.898c4.66-1.359,9.397-1.867,14.251-1.385c8.782,0.881,15.906,4.963,21.854,11.279
			c1.244,1.32,2.36,2.772,3.377,4.293c4.445,6.676,6.449,13.971,5.542,21.967c-0.836,7.373-4.048,13.729-8.714,19.402
			c-1.074,1.316-2.198,2.576-3.427,3.756c-0.63,0.604-0.621,0.756-0.015,1.386c0.742,0.777,1.345,1.659,1.904,2.56
			c2.434,3.941,3.578,8.206,3.147,12.865c-0.243,2.651-0.986,5.151-2.175,7.531c-1.661,3.328-4.021,6.112-6.817,8.557
			c-2.697,2.353-5.808,3.871-9.248,4.74c-2.393,0.6-4.835,0.765-7.305,0.558c-3.423-0.285-6.585-1.309-9.552-3.014
			c-2.496-1.434-4.548-3.396-6.491-5.489c-3.007-3.228-6.019-6.448-9.02-9.689c-0.364-0.396-0.637-0.566-1.116-0.107
			c-4.041,3.786-8.098,7.562-12.152,11.34c-2.872-3.086-5.746-6.173-8.619-9.253c7.9-7.366,15.805-14.729,23.7-22.097
			c0.428-0.406,0.694-0.318,1.064,0.076c2.918,3.16,5.854,6.303,8.788,9.446c0.175,0.187,0.305,0.433,0.621,0.508
			c0.135-0.245,0.094-0.508,0.1-0.755c0.52-14.446,1.041-28.888,1.555-43.328c0.036-0.963,0.036-0.963-0.923-0.994
			c-14.438-0.51-28.887-1.019-43.324-1.527c-0.132-0.008-0.26-0.017-0.394-0.018c-0.125,0.007-0.28-0.051-0.347,0.1
			c-0.057,0.143,0.09,0.232,0.164,0.328c0.118,0.131,0.244,0.26,0.356,0.388c2.889,3.1,5.77,6.205,8.671,9.294
			c0.405,0.432,0.477,0.718-0.006,1.158C333.84,214.296,325.952,221.644,318.062,228.98z"/>
		<path fill-rule="evenodd" clip-rule="evenodd" fill="#FFFFFF" d="M350.329,263.63c4.055-3.778,8.111-7.554,12.152-11.34
			c0.479-0.459,0.752-0.289,1.116,0.107c3.001,3.241,6.013,6.462,9.02,9.689c1.943,2.094,3.995,4.056,6.491,5.489
			c2.967,1.705,6.129,2.729,9.552,3.014c2.47,0.207,4.912,0.042,7.305-0.558c3.44-0.869,6.551-2.388,9.248-4.74
			c2.797-2.444,5.156-5.229,6.817-8.557c1.188-2.38,1.932-4.88,2.175-7.531c0.431-4.659-0.714-8.924-3.147-12.865
			c-0.56-0.9-1.162-1.782-1.904-2.56c-0.606-0.63-0.615-0.782,0.015-1.386c1.229-1.18,2.353-2.439,3.427-3.756
			c4.666-5.674,7.878-12.029,8.714-19.402c0.907-7.996-1.097-15.291-5.542-21.967c-1.017-1.521-2.133-2.973-3.377-4.293
			c-5.948-6.316-13.072-10.398-21.854-11.279c-4.854-0.482-9.591,0.025-14.251,1.385c-0.874,0.252-1.721,0.602-2.584,0.898
			c-0.181,0.061-0.362,0.244-0.548,0.113c-0.213-0.158-0.059-0.402-0.023-0.605c0.557-3.537-0.207-6.807-2.183-9.747
			c-1.962-2.914-4.612-5.065-7.867-6.419c-3.545-1.473-7.177-1.897-10.904-0.863c-3.442,0.957-6.031,3.09-8.04,5.981
			c-0.546,0.78-0.601,0.765-1.164-0.007c-4.617-6.383-10.794-9.821-18.736-9.75c-5.094,0.048-9.679,1.76-13.757,4.772
			c-3.876,2.858-6.756,6.479-8.323,11.077c-1.563,4.559-1.675,9.15-0.323,13.777c0.958,3.285,2.573,6.193,4.812,8.792
			c3.177,3.688,6.602,7.146,9.881,10.745c1.67,1.832,3.369,3.642,5.072,5.438c0.414,0.438,0.452,0.732-0.023,1.166
			c-4.05,3.754-8.087,7.517-12.124,11.273c-5.575-5.982-11.149-11.965-16.711-17.945c-0.091-0.145-0.154-0.314-0.263-0.448
			c-2.113-2.528-3.824-5.327-5.202-8.312c-3.441-7.484-4.583-15.312-3.28-23.453c1.133-7.086,3.965-13.422,8.535-18.968
			c0.606-0.733,1.221-1.46,1.829-2.192c1.207-1.125,2.421-2.248,3.628-3.376c0.641-0.289,1.113-0.821,1.662-1.234
			c4.075-3.051,8.596-5.177,13.495-6.48c4.481-1.195,9.052-1.605,13.691-1.199c5.856,0.5,11.336,2.169,16.453,5.05
			c0.446,0.25,0.806,0.277,1.268,0.057c1.569-0.751,3.195-1.375,4.88-1.831c4.377-1.178,8.812-1.444,13.304-0.688
			c7.063,1.19,13.033,4.447,17.934,9.629c1.626,1.72,3.036,3.637,4.139,5.752c0.254,0.486,0.578,0.682,1.136,0.656
			c4.437-0.246,8.812,0.244,13.13,1.24c7.979,1.831,15.088,5.434,21.38,10.674c0.865,0.725,1.617,1.565,2.556,2.207
			c1.3,1.396,2.608,2.799,3.906,4.195c0.689,0.922,1.378,1.835,2.064,2.76c3.397,4.607,5.902,9.673,7.562,15.146
			c1.928,6.344,2.619,12.836,2.031,19.463c-0.385,4.35-1.303,8.584-2.758,12.699c-1.583,4.448-3.722,8.613-6.49,12.439
			c-0.345,0.469-0.419,0.91-0.24,1.465c0.317,0.99,0.564,2.002,0.771,3.028c0.943,4.646,1.056,9.306,0.35,13.999
			c-0.648,4.341-1.969,8.464-3.996,12.34c-3.033,5.801-7.191,10.622-12.558,14.397c-5.138,3.631-10.819,5.901-17.018,6.852
			c-5.509,0.843-10.963,0.555-16.354-0.878c-5.572-1.489-10.624-4.027-15.085-7.715c-0.75-0.616-1.503-1.24-2.245-1.872
			C358.745,272.667,354.532,268.148,350.329,263.63z"/>
		<path fill-rule="evenodd" clip-rule="evenodd" fill="none" d="M423.011,168.863c-0.938-0.642-1.69-1.482-2.556-2.207
			c-6.292-5.24-13.4-8.843-21.38-10.674c-4.318-0.996-8.693-1.486-13.13-1.24c-0.558,0.025-0.882-0.17-1.136-0.656
			c-1.103-2.116-2.513-4.032-4.139-5.752c-4.9-5.183-10.87-8.439-17.934-9.629c-4.492-0.756-8.927-0.489-13.304,0.688
			c-1.685,0.456-3.311,1.079-4.88,1.831c-0.462,0.22-0.821,0.193-1.268-0.057c-5.117-2.88-10.597-4.549-16.453-5.05
			c-4.64-0.406-9.21,0.004-13.691,1.199c-4.899,1.303-9.42,3.429-13.495,6.48c-0.549,0.414-1.021,0.946-1.662,1.234
			c18.213-16.966,36.432-33.926,54.636-50.894c0.354-0.335,0.518-0.331,0.844,0.026
			C376.642,119.067,399.827,143.963,423.011,168.863z"/>
		<path fill-rule="evenodd" clip-rule="evenodd" fill="#FFFFFF" d="M318.062,228.98c7.891-7.336,15.778-14.684,23.675-22.023
			c0.482-0.44,0.411-0.727,0.006-1.158c-2.901-3.089-5.782-6.194-8.671-9.294c-0.112-0.128-0.238-0.257-0.356-0.388
			c-0.074-0.096-0.221-0.186-0.164-0.328c0.066-0.15,0.222-0.093,0.347-0.1c0.134,0.001,0.262,0.01,0.394,0.018
			c14.438,0.509,28.886,1.018,43.324,1.527c0.959,0.031,0.959,0.031,0.923,0.994c-0.514,14.44-1.035,28.882-1.555,43.328
			c-0.006,0.247,0.035,0.51-0.1,0.755c-0.316-0.075-0.446-0.321-0.621-0.508c-2.935-3.144-5.87-6.286-8.788-9.446
			c-0.37-0.395-0.637-0.482-1.064-0.076c-7.896,7.368-15.8,14.73-23.7,22.097C333.827,245.911,325.944,237.447,318.062,228.98z"/>
		<path fill-rule="evenodd" clip-rule="evenodd" fill="none" d="M362.952,277.182c0.742,0.632,1.495,1.256,2.245,1.872
			c4.461,3.688,9.513,6.226,15.085,7.715c5.391,1.433,10.845,1.721,16.354,0.878c6.198-0.95,11.88-3.221,17.018-6.852
			c5.366-3.775,9.524-8.597,12.558-14.397c2.027-3.876,3.348-7.999,3.996-12.34c0.706-4.693,0.594-9.354-0.35-13.999
			c-0.207-1.026-0.454-2.038-0.771-3.028c-0.179-0.555-0.104-0.996,0.24-1.465c2.769-3.826,4.907-7.991,6.49-12.439
			c1.455-4.115,2.373-8.35,2.758-12.699c0.588-6.627-0.104-13.119-2.031-19.463c-1.659-5.474-4.164-10.539-7.562-15.146
			c-0.687-0.925-1.375-1.838-2.064-2.76c15.844,17.01,31.676,34.016,47.522,51.012c0.335,0.357,0.329,0.517-0.031,0.85
			c-28.451,26.471-56.896,52.97-85.329,79.464c-0.362,0.333-0.516,0.321-0.844-0.036
			C379.811,295.291,371.387,286.236,362.952,277.182z"/>
		<path fill-rule="evenodd" clip-rule="evenodd" fill="none" d="M294.356,148.406c-0.608,0.732-1.223,1.459-1.829,2.192
			c-4.57,5.546-7.402,11.882-8.535,18.968c-1.303,8.141-0.161,15.969,3.28,23.453c1.378,2.984,3.089,5.783,5.202,8.312
			c0.108,0.134,0.172,0.304,0.263,0.448c-8.502-9.123-16.997-18.248-25.509-27.359c-0.314-0.346-0.309-0.481,0.036-0.801
			C276.301,165.223,285.325,156.818,294.356,148.406z"/>
	</g>
	<path display="inline" fill-rule="evenodd" clip-rule="evenodd" fill="#FAFCFD" d="M118.469,163.009
		c0-5.995,0.007-11.99-0.002-17.985c-0.008-5.235,2.914-8.807,7.935-9.932c25.429-5.702,51.146-6.501,76.973-4.104
		c24.042,2.231,47.433,7.292,68.36,20.005c28.906,17.56,46.188,42.9,49.975,76.93c0.645,5.783,1.75,11.512,1.766,17.363
		c0.008,2.79,1.149,3.576,4.15,2.992c14.365-2.791,28.788-5.281,43.189-7.885c3.409-0.615,6.498,0.135,8.33,3.133
		c1.932,3.163-0.785,5.368-2.533,7.42c-18.021,21.164-36.133,42.254-54.207,63.373c-9.415,11.002-18.836,21.998-28.199,33.043
		c-5.883,6.942-10.438,6.422-15.627-1.195c-15.352-22.529-30.947-44.892-46.411-67.344c-8.861-12.867-17.629-25.799-26.497-38.662
		c-1.391-2.018-2.749-3.945-0.98-6.305c1.81-2.414,4.357-2.984,7.162-2.211c17.471,4.811,34.948,9.602,52.384,14.539
		c4.731,1.34,5.596,0.637,4.897-4.301c-3.925-27.749-24.581-45.207-49.416-51.093c-26.473-6.272-52.822-4.938-79.271-0.472
		c-3.117,0.525-6.227,1.125-9.362,1.503c-7.311,0.882-12.235-3.464-12.302-10.822c-0.055-5.997-0.012-11.994-0.012-17.992
		C118.67,163.009,118.569,163.009,118.469,163.009z"/>
	<path display="inline" fill-rule="evenodd" clip-rule="evenodd" fill="#FAFCFD" d="M247.877,462.243
		c-17.127,0.304-35.524-0.705-53.553-5.58c-35.478-9.595-62.523-29.666-77.906-63.625c-6.24-13.774-8.26-28.748-8.758-43.792
		c-0.15-4.575-1.411-5.8-5.855-4.998c-14.082,2.54-28.215,4.8-42.328,7.164c-1.803,0.302-3.6,0.669-5.416,0.86
		c-2.984,0.312-5.221-1.035-6.574-3.605c-1.291-2.45,0.564-4.109,1.964-5.691c13.896-15.717,27.816-31.412,41.759-47.088
		c15.161-17.047,30.297-34.117,45.559-51.073c6.416-7.129,10.78-6.901,16.39,0.883c25.378,35.218,50.666,70.5,75.961,105.777
		c1.455,2.029,2.942,4.154,1.267,6.843c-1.623,2.604-4.272,2.734-6.666,2.199c-8.921-1.994-17.791-4.223-26.652-6.475
		c-10.635-2.703-21.242-5.518-31.861-8.288c-3.527-0.921-3.994,0.827-3.545,3.789c3.78,24.927,18.749,41.093,40.992,50.823
		c19.402,8.488,39.805,9.688,60.672,6.113c6.707-1.148,13.479-2.07,20.219-3.133c7.385-1.164,12.307,3.025,12.518,10.616
		c0.344,12.321,0.435,24.651,0.555,36.978c0.043,4.308-2.193,7.182-6.13,8.796c-5.038,2.065-10.379,2.38-15.703,2.469
		C266.287,462.347,257.788,462.243,247.877,462.243z"/>
</g>
<g id="Layer_3">
</g>
<g id="Layer_4">
	
		<linearGradient id="SVGID_2_" gradientUnits="userSpaceOnUse" x1="12598.5117" y1="26.4331" x2="13799.8057" y2="634.0637" gradientTransform="matrix(-0.6452 -0.3473 -0.369 0.6883 8818.7051 4605.2124)">
		<stop  offset="0.0025" style="stop-color:#7896B3"/>
		<stop  offset="1" style="stop-color:#2A4B82"/>
	</linearGradient>
	<polygon fill="url(#SVGID_2_)" points="219.331,183.001 278.989,445.498 463.113,301.386 399.71,49.889 	"/>
	<polygon fill="#355E8D" points="0,129.66 74.397,390.751 279.341,445.498 219.682,184.054 	"/>
	<polygon fill="#8BA6CD" points="179.561,0.057 0.351,129.66 219.331,185.107 399.71,49.648 	"/>
</g>
<g id="Layer_8" display="none">
	<g display="inline">
		<path fill="#FFFFFF" d="M94.174,318.958c-6.556-26.51-13.119-53.023-19.673-79.538c0.016-0.205,0.063-0.399,0.043-0.628
			c-0.527-6.226,1.313-9.474,5.71-9.328c4.447,0.149,8.965,0.489,13.459,0.771c0.689,0.045,1.113-0.115,1.142-1.157
			c0.123-4.79,0.341-9.512,0.538-14.248c0.241-5.749,3.021-8.193,7.794-6.804c11.678,3.391,23.359,6.802,35.045,10.229
			c4.778,1.397,9.294,5.974,12.635,12.767c2.751,5.598,5.522,11.19,8.229,16.803c0.539,1.124,1.056,1.633,1.816,2.008
			c5.161,2.557,10.312,5.045,15.489,7.746c4.457,2.326,8.045,6.752,10.764,12.824c0.329,0.723,0.646,1.455,0.965,2.182
			c6.559,26.514,13.116,53.025,19.676,79.541c0.003,0.354-0.018,0.695,0.009,1.064c0.531,6.49-2.512,10.076-7.47,8.633
			c-30.789-8.973-61.579-17.959-92.374-26.959c-4.56-1.338-9.565-6.584-12.55-13.09C94.992,320.837,94.588,319.898,94.174,318.958z
			 M151.693,338.384c15.241,4.453,30.481,8.902,45.721,13.348c2.553,0.742,3.508-0.857,2.623-4.438
			c-6.088-24.633-12.182-49.266-18.281-73.902c-0.838-3.396-2.402-5.51-4.91-6.766c-6.359-3.168-12.727-6.383-19.083-9.516
			c-0.705-0.348-1.062-0.852-1.48-1.703c-3.577-7.337-7.178-14.664-10.774-21.997c-1.66-3.39-2.896-4.639-5.305-5.345
			c-11.354-3.312-22.71-6.628-34.065-9.94c-2.41-0.705-3.169-0.035-3.282,2.838c-0.244,6.211-0.496,12.413-0.722,18.635
			c-0.026,0.725-0.169,1.087-0.801,1.041c-5.604-0.37-11.178-0.659-16.764-0.971c-2.593-0.151-3.149,1.171-2.16,5.166
			c6.012,24.321,12.03,48.641,18.047,72.959c1.042,4.211,2.842,6.469,5.851,7.348C121.436,329.562,136.565,333.974,151.693,338.384z
			"/>
		<path fill-rule="evenodd" clip-rule="evenodd" fill="#FFFFFF" d="M146.85,328.607c-15.489-5.369-31.355-27.758-35.475-50.059
			c-4.104-22.221,5.07-35.842,20.539-30.486c15.495,5.371,31.349,27.738,35.475,50.052
			C171.493,320.302,162.291,333.96,146.85,328.607z M133.873,258.117c-11.499-4.115-18.557,6.113-15.583,22.584
			c3.004,16.605,14.871,33.625,26.323,37.746c11.744,4.223,18.844-5.795,15.872-22.4
			C157.476,279.24,145.595,262.306,133.873,258.117z"/>
		<path fill-rule="evenodd" clip-rule="evenodd" fill="#FFFFFF" d="M125.237,282.591c-1.751-10.188,2.918-16.955,10.017-14.51
			c1.312,0.453,2.252,1.605,2.565,3.146c0.318,1.555-0.245,2.24-1.542,1.875c-5.524-1.537-8.706,3.053-7.536,10.879
			c0.323,2.146-0.088,3.02-1.217,2.57C126.386,286.105,125.607,284.75,125.237,282.591z"/>
	</g>
</g>
<g id="Layer_7" display="none">
	<g display="inline">
		<path fill-rule="evenodd" clip-rule="evenodd" fill="#FFFFFF" d="M282.727,290.262c-8.586-28.757,4.238-68.344,30.791-94.432
			c19.33-18.995,39.275-27.636,59.369-25.342c14.15,1.614,24.639,9.096,31.271,22.17c14.779,29.125,2.143,75.14-28.721,104.742
			c-29.396,28.193-65.207,32.427-83.91,9.918C287.58,302.566,284.777,297.13,282.727,290.262z M395.734,210.034
			c-1.365-2.943-2.551-6.061-4.125-8.801c-12.109-21.069-41.197-22.304-67.193,0.123c-11.562,9.978-20.385,22.37-25.971,37.07
			c-8.453,22.246-7.822,40.919,2.268,54.99c14.803,20.644,45.891,17.019,70.225-7.577
			C392.361,264.186,402.395,232.321,395.734,210.034z"/>
		<path fill-rule="evenodd" clip-rule="evenodd" fill="#FFFFFF" d="M379.318,222.552c-13.414,21.659-26.588,42.934-39.9,64.433
			c-5.938-19.887-11.82-39.586-17.768-59.507C340.857,225.837,359.93,224.208,379.318,222.552z"/>
	</g>
</g>
<g id="Layer_6" display="none">
	<path display="inline" fill-rule="evenodd" clip-rule="evenodd" fill="#FFFFFF" d="M252.927,48.094
		c15.028,3.704,30.082,7.387,45.111,11.089c10.34,2.547,11.421,7.339,2.82,14.353c-24.881,20.289-49.795,40.57-74.758,60.841
		c-8.803,7.147-18.834,8.863-28.826,6.458c-29.749-7.159-59.373-14.423-88.877-21.779c-11.59-2.89-11.541-8.379-1.867-16.16
		c23.563-18.961,46.992-37.961,70.056-57.044c10.562-8.742,21.116-11.684,34.112-8.205
		C224.502,41.344,238.841,44.621,252.927,48.094z M249.773,100.686c10.493-8.542,20.687-17.17,31.604-25.597
		c6.413-4.951,5.419-7.252-1.828-8.958c-25.107-5.911-49.977-12.027-74.649-18.295c-7.224-1.834-12.131-0.583-18.041,4.312
		c-20.32,16.834-40.962,33.598-61.785,50.311c-5.688,4.561-6.997,7.337,0.893,9.178c25.632,5.981,50.953,12.226,76.044,18.65
		c6.815,1.745,11.116,0.484,16.354-3.956C228.533,117.714,239.261,109.226,249.773,100.686z"/>
	<path display="inline" fill-rule="evenodd" clip-rule="evenodd" fill="#FFFFFF" d="M177.229,107.978
		c-3.278-0.804-6.806-1.428-9.774-2.448c-6.212-2.134-20.132-1.934-17.741-6.246c3.08-5.549,17.776-6.704,27.107-10.244
		c5.435-2.06,10.25-2.484,8.701,1.701c-2.954,7.979,4.998,5.976,14.165,2.789c13.289-4.621,21.578-5.55,16.221,4.357
		c-3.004,5.557,1.308,12.762-7.493,15.975c-8.132,2.967-15.795-2.731-24.142-4.183C181.783,109.245,179.57,108.551,177.229,107.978z
		"/>
	<path display="inline" fill-rule="evenodd" clip-rule="evenodd" fill="#FFFFFF" d="M210.439,73.999
		c-6.453,4.328-12.905,5.726-18.485,3.989c-5.406-1.686-6.496-4.992-0.853-9.096c5.443-3.963,11.845-5.155,17.781-3.536
		C215.093,67.05,214.229,70.379,210.439,73.999z"/>
</g>
<g id="Layer_5" display="none">
	<g display="inline">
		<path fill-rule="evenodd" clip-rule="evenodd" fill="#FFFFFF" d="M339.194,315.486c-5.939,3.07-6.932,2.273-7.254-6.373
			c-0.303-8.146-0.318-16.365-0.577-24.525c-0.032-1.059-0.626-2.141-1.169-2.888c-13.438-18.433-26.879-36.856-40.416-55.132
			c-0.816-1.102-2.43-1.53-3.665-1.289c-4.688,0.92-9.374,2.267-14.062,3.415c-3.996,0.978-5.964-0.525-6.015-4.522
			c-0.048-3.804,1.782-6.249,5.464-7.199c5.447-1.407,10.904-2.641,16.346-4.195c2.748-0.784,4.816,0.048,6.633,2.756
			c1.925,2.871,3.895,7.308,6.258,7.465c2.551,0.171,5.621-3.697,8.395-6.018c23.57-19.716,47.123-39.481,70.683-59.23
			c0.897-0.753,1.782-1.569,2.704-2.229c3.857-2.754,6.129-1.204,6.605,4.717c1.469,18.233,2.875,36.487,4.3,54.733
			c0.499,6.394,0.829,12.858,1.521,19.174c0.526,4.808-0.595,7.77-3.728,10.358c-16.814,13.916-33.527,28.161-50.368,41.999
			c-2.646,2.175-3.338,4.278-2.867,8.018c0.379,3.012,0.389,6.193,0.595,9.884c1.482-1.243,2.565-2.149,3.646-3.057
			c17.27-14.478,34.54-28.957,51.81-43.432c0.799-0.671,1.587-1.378,2.403-1.988c2-1.499,4.084-1.423,4.643,1.442
			c0.344,1.755-0.766,4.58-1.562,6.695c-0.432,1.143-1.574,1.798-2.438,2.717c6.42,7.681,7.811,14.803,4.718,23.629
			c-2.679,7.646-8.245,12.098-13.694,10.953c-5.965-1.258-8.844-7.491-8.842-19.598c-7.47,6.264-14.826,12.431-22.236,18.643
			c6.467,8.539,7.721,15.908,4.271,24.582c-2.906,7.308-8.408,11.318-13.692,9.983C341.735,333.488,338.903,327.045,339.194,315.486
			z M328.749,213.966c-7.289,6.11-14.404,12.076-21.922,18.378c1.924,2.658,3.64,5.153,5.471,7.457
			c0.356,0.45,1.281,0.529,1.744,0.149c6.057-4.972,12.08-10.056,18.22-15.203C330.999,220.872,329.909,217.525,328.749,213.966z
			 M360.696,187.117c1.156,3.548,2.313,7.101,3.539,10.863c5.726-4.8,11.226-9.334,16.662-14.062
			c0.703-0.612,1.531-2.33,1.504-3.347c-0.09-3.583-0.527-7.086-0.858-10.93C374.476,175.566,367.71,181.238,360.696,187.117z
			 M343.626,228.761c1.418,4.354,2.692,8.267,3.971,12.188c5.555-4.657,10.896-9.134,16.363-13.718
			c-1.359-4.171-2.631-8.075-3.971-12.188C354.468,219.671,349.126,224.15,343.626,228.761z M319.154,249.197
			c2.301,3.173,4.253,5.961,6.295,8.603c0.378,0.489,1.253,0.832,1.668,0.499c4.254-3.426,8.461-7.009,12.585-10.465
			c-1.482-4.55-2.749-8.435-4.061-12.46C330.168,239.963,324.933,244.353,319.154,249.197z M371.597,221.15
			c4.132-3.464,8.023-6.631,11.835-10.023c0.587-0.521,1.179-2.182,1.134-3.133c-0.207-4.202-0.646-8.339-1.009-12.601
			c-5.444,4.565-10.666,8.942-15.985,13.401C368.907,212.891,370.146,216.695,371.597,221.15z M353.047,193.699
			c-5.575,4.674-10.99,9.214-16.39,13.74c1.195,3.667,2.293,7.036,3.416,10.484c5.539-4.645,10.882-9.123,16.391-13.74
			C355.287,200.576,354.194,197.219,353.047,193.699z M354.415,262.084c5.555-4.657,10.949-9.181,16.422-13.769
			c-1.15-3.529-2.199-6.749-3.301-10.129c-5.573,4.671-10.97,9.196-16.422,13.768C352.258,255.468,353.31,258.692,354.415,262.084z
			 M385.503,223.112c-3.439,2.885-6.864,5.756-10.26,8.602c1.174,3.604,2.254,6.917,3.328,10.217
			C388.262,233.983,387.132,238.29,385.503,223.112z M343.276,258.477c-3.58,3.001-7.008,5.874-10.451,8.762
			c4.675,9.282,7.137,9.496,13.666,1.108C345.456,265.169,344.407,261.947,343.276,258.477z M396.062,280.092
			c-1.121-3.704-4.07-4.915-6.747-2.77c-2.705,2.17-3.973,6.71-2.897,10.378c1.039,3.547,4.199,4.812,6.832,2.731
			C395.929,288.314,397.171,283.755,396.062,280.092z M355.866,313.633c-1.146-3.613-4.163-4.743-6.812-2.551
			c-2.672,2.208-3.908,6.845-2.783,10.429c1.092,3.475,4.302,4.656,6.891,2.535C355.8,321.887,357.007,317.231,355.866,313.633z"/>
	</g>
</g>
<g id="Layer_9" display="none">
	<g display="inline">
		<path fill-rule="evenodd" clip-rule="evenodd" fill="#FFFFFF" d="M148.767,76.816c16.826-13.076,33.681-26.144,50.438-39.237
			c1.853-1.448,2.759-1.657,4.415-1.179c18.554,5.37,37.367,10.541,55.745,16.043c9.307,2.786,17.201,6.56,21.895,12.259
			c6.406,7.782,4.496,17.591-5.586,29.25c-8.928,10.321-21.15,19.831-36.489,28.303c-21.682,11.975-42.47,16.55-62.368,15.699
			c-8.455-0.362-15.938-1.641-22.696-3.551c-18.743-5.297-37.374-10.682-56.14-15.962c-1.743-0.489-1.515-1.03,0.272-2.412
			C115.139,102.973,131.94,89.89,148.767,76.816z M153.333,78.216c-15.115,11.745-30.202,23.498-45.383,35.224
			c-1.784,1.379-1.972,1.9-0.252,2.382c17.346,4.872,34.567,9.841,51.864,14.75c6.035,1.714,12.692,2.885,20.187,3.269
			c19.06,0.977,38.837-3.563,59.299-15.501c11.858-6.917,21.693-14.535,29.265-22.682c10.52-11.317,12.529-20.757,6.064-28.22
			c-3.529-4.07-8.721-7.154-15.395-9.279c-18.323-5.836-37.69-10.869-56.393-16.414c-1.695-0.503-2.538,0.141-3.936,1.231
			C183.575,54.73,168.447,66.471,153.333,78.216z"/>
		<path fill-rule="evenodd" clip-rule="evenodd" fill="#FFFFFF" d="M165.372,103.429c5.736-4.457,11.524-8.902,17.176-13.382
			c1.62-1.284,2.621-1.77,4.208-1.2c3.37,1.208,7.645,1.38,13.191-1.105c6.07-2.719,10.524-6.12,12.419-9.931
			c1.469-2.951-0.27-4.652-3.767-5.387c-2.042-0.431-2.128-1.062,0.148-2.755c5.116-3.805,10.011-7.684,14.905-11.556
			c1.417-1.12,2.314-1.535,3.765-1.081c8.618,2.697,18.147,4.709,26.016,7.97c8.451,3.499,14.6,8.163,13.779,16.171
			c-0.646,6.302-6.033,12.873-13.379,19.546c-0.965,0.88-1.83,1.21-2.744,0.803c-0.061-0.026-0.138-0.042-0.214-0.058
			c-5.974-1.414-5.974-1.414,0.287-6.279c2.713-2.108,5.346-4.243,8.17-6.312c1.646-1.209,1.625-1.748,0.088-1.987
			c-0.635-0.101-1.199-0.277-1.697-0.484c-0.939-0.386-1.744-0.042-2.807,0.789c-6.091,4.767-12.205,9.529-18.375,14.274
			c-1.247,0.96-1.201,1.351-0.09,1.645c3.035,0.798,5.887,1.745,8.973,2.503c1.521,0.373,1.198,0.908-0.307,2.045
			c-19.457,14.707-41.548,21.676-62.375,19.728c-7.684-0.718-14.127-2.453-20.469-4.293c-4.651-1.35-9.257-2.737-14.053-3.972
			c-1.764-0.454-1.916-0.972,0.131-2.515C154.134,112.249,159.713,107.826,165.372,103.429z M232.468,101.953
			c4.075-4.802,7.89-9.287,11.688-13.771c3.891-4.595,3.804-4.532-1.172-6.032c-1.508-0.454-2.653-0.12-4.526,0.924
			c-7.114,3.96-14.311,7.859-21.472,11.782c-3.206,1.756-3.28,1.823-0.729,2.426c1.083,0.256,1.796,1.419,4.105-0.11
			c3.03-2.007,5.074-2.107,6.867-1.163c0.503,0.266,1.202,0.418,1.898,0.547c1.118,0.21,1.373,0.679,0.292,1.622
			c-2.299,2.007-1.518,2.868,0.876,3.175C231.02,101.442,231.57,101.697,232.468,101.953z M210.293,84.058
			c-3.098,2.406-6.156,4.826-9.312,7.213c-1.224,0.926-1.32,1.362-0.163,1.66c2.828,0.731,5.695,1.444,8.239,2.382
			c1.792,0.662,2.886,0.189,4.921-1.334c2.416-1.804,2.76-2.688,0.215-3.023c-1.131-0.149-1.952-0.586-3.006-0.814
			c-1.154-0.25-1.177-0.693,0.08-1.652c1.217-0.932,1.945-0.931,2.823-0.646c1.225,0.398,2.542,0.728,3.806,1.098
			c0.613,0.18,1.128,0.202,2.12-0.408c4.032-2.483,4.309-3.308,1.23-4.188c-0.708-0.202-1.383-0.43-2.125-0.602
			c-0.942-0.217-0.927-0.628,0.083-1.412c1.074-0.831,1.807-0.857,2.616-0.607c1.241,0.386,2.631,0.666,3.783,1.114
			c1.229,0.478,2.274,0.118,3.518-0.988c0.621-0.555,1.348-1.096,2.081-1.625c1.076-0.776,0.955-1.141,0.054-1.386
			c-3.08-0.837-6.13-1.698-9.116-2.608c-1.012-0.309-1.742-0.063-2.806,0.782C216.364,79.374,213.311,81.712,210.293,84.058z"/>
		<path fill-rule="evenodd" clip-rule="evenodd" fill="#FFFFFF" d="M137.035,98.448c4.879-3.792,9.792-7.574,14.616-11.381
			c1.274-1.006,2.063-1.49,3.483-1.049c4.487,1.396,9.116,2.685,13.773,3.951c1.197,0.325,1.235,0.719-0.123,1.767
			c-9.884,7.629-19.713,15.274-29.515,22.928c-1.228,0.96-1.983,1.331-3.252,0.945c-4.583-1.397-9.244-2.737-14.003-3.996
			c-1.385-0.365-0.815-0.89,0.364-1.793C127.301,106.04,132.155,102.24,137.035,98.448z"/>
		<path fill-rule="evenodd" clip-rule="evenodd" fill="#FFFFFF" d="M189.062,78.067c-6.415,5.007-16.131,7.677-21.995,6.044
			c-5.798-1.614-5.379-7.012,0.927-11.93c6.335-4.941,16.222-7.648,22.034-6.035C195.844,67.759,195.41,73.111,189.062,78.067z"/>
		<path fill-rule="evenodd" clip-rule="evenodd" fill="#FFFFFF" d="M195.702,79.852c0.62-0.48,1.16-1.009,1.869-1.427
			c1.381-0.812,1.973-2.407,4.196-2.366c3.02,0.057,4.596,1.714,3.364,3.394c-1.338,1.832-3.548,3.501-6.359,4.902
			c-2.35,1.17-7.748,0.975-8.153-0.21c-0.127-0.379,0.485-0.716,0.922-1.06C192.917,82.005,194.312,80.93,195.702,79.852z"/>
		<path fill-rule="evenodd" clip-rule="evenodd" fill="#FFFFFF" d="M238.561,87.533c-0.882,1.049-1.682,2.105-2.675,3.146
			c-0.497,0.52-0.619,1.348-1.688,1.522c-1.303,0.212-2.095-0.262-2.785-0.664c-0.438-0.255,0.337-0.658,0.897-0.964
			c1.95-1.067,3.9-2.13,5.853-3.194C238.296,87.43,238.428,87.481,238.561,87.533z"/>
	</g>
	<g display="inline">
		<path fill-rule="evenodd" clip-rule="evenodd" fill="#FFFFFF" d="M192.594,315.901c-3.149-0.681-4.661,0.682-4.744,2.639
			c-0.078,1.922,1.533,4.54,3.958,6.188c0.766,0.524,1.648,0.911,2.48,1.254c0.493,0.201,0.723,0.355,0.798,0.766
			c0.13,0.688,0.302,1.384,0.471,2.133c-1.859-0.398-3.244-0.198-4.088,0.73c-0.672,0.746-0.867,1.731-0.578,2.967
			c0.653,2.8,2.773,4.869,6.991,6.717c0.084,0.374,0.176,0.789,0.268,1.194c0.09,0.393,0.174,0.786,0.276,1.223
			c-1.833-0.364-3.25-0.199-4.086,0.738c-0.724,0.807-0.882,1.89-0.521,3.241c0.718,2.688,3.124,4.959,6.928,6.421
			c0.31,1.385,0.641,2.798,0.916,4.192c0.039,0.19-0.177,0.327-0.325,0.448c-1.111,0.91-2.256,1.793-3.34,2.723
			c-0.31,0.265-0.677,0.297-1.253,0.149c-7.216-1.854-14.428-3.689-21.641-5.521c-23.001-5.849-46.003-11.693-69.003-17.538
			c-1.336-0.337-2.671-0.659-4.014-1.033c-0.314-0.092-0.733-0.324-0.988-0.569c-2.135-2.019-4.251-4.045-6.341-6.089
			c-0.276-0.271-0.482-0.668-0.549-0.961c-2.342-10.429-4.666-20.853-6.993-31.281c-2.238-10.031-4.477-20.062-6.736-30.098
			c-0.114-0.504-0.022-0.813,0.312-1.071c1.158-0.894,2.246-1.852,3.416-2.734c0.214-0.162,0.652-0.22,1.036-0.123
			c4.005,1.003,8.023,2.064,12.035,3.084c15.061,3.824,30.121,7.633,45.183,11.455c3.28,0.833,6.571,1.721,9.848,2.551
			c9.156,2.319,18.312,4.633,27.462,6.929c0.638,0.162,1.108,0.424,1.626,0.934c1.927,1.893,3.899,3.76,5.834,5.648
			c0.242,0.236,0.475,0.572,0.529,0.816c1.62,7.178,3.218,14.349,4.817,21.521C192.604,315.66,192.588,315.759,192.594,315.901z
			 M166.979,321.944c-2.239-10.542-14.555-22.062-27.65-25.434c-12.892-3.318-21.389,2.762-19.032,13.508
			c2.293,10.45,14.306,21.941,27.493,25.383C160.888,338.822,169.389,332.771,166.979,321.944z"/>
		<path fill-rule="evenodd" clip-rule="evenodd" fill="#FFFFFF" d="M107.049,264.247c-4.195-1.067-8.298-2.113-12.47-3.175
			c-0.084-0.306-0.163-0.555-0.216-0.804c-1.143-5.109-2.431-10.253-3.378-15.31c-1.48-7.892,0.633-13.816,6.07-17.786
			c4.874-3.557,11.519-4.698,19.82-3.365c7.814,1.251,15.757,4.053,23.632,9.143c11.936,7.705,20.155,16.939,24.412,27.644
			c0.691,1.743,1.17,3.477,1.568,5.168c1.088,4.613,2.08,9.203,3.109,13.802c0.058,0.25,0.112,0.5,0.178,0.797
			c-4.211-1.071-8.337-2.124-12.549-3.195c-0.104-0.453-0.19-0.844-0.277-1.231c-0.989-4.436-1.996-8.875-2.968-13.304
			c-1.123-5.128-3.953-10.185-8.839-15.132c-5.047-5.106-10.832-8.87-17.336-11.105c-5.021-1.728-9.773-2.622-13.888-1.952
			c-7.381,1.21-11.102,5.296-10.48,12.52c0.274,3.224,1.296,6.71,2.007,10.082C105.946,259.417,106.5,261.8,107.049,264.247z"/>
		<path fill-rule="evenodd" clip-rule="evenodd" fill="#FFFFFF" d="M200.812,335.211c0.433,2.01-1.005,3.108-3.295,2.515
			c-2.432-0.634-4.484-2.616-4.948-4.788c-0.431-2.009,1.062-3.078,3.422-2.456C198.282,331.089,200.366,333.133,200.812,335.211z"
			/>
		<path fill-rule="evenodd" clip-rule="evenodd" fill="#FFFFFF" d="M189.659,319.924c-0.465-1.987,0.985-3.156,3.22-2.591
			c2.362,0.595,4.505,2.59,4.974,4.627c0.492,2.132-0.875,3.261-3.242,2.67C192.223,324.031,190.165,322.073,189.659,319.924z"/>
		<path fill-rule="evenodd" clip-rule="evenodd" fill="#FFFFFF" d="M200.244,350.502c-2.303-0.604-4.481-2.699-4.88-4.695
			c-0.414-2.065,1.058-3.144,3.433-2.523c2.229,0.584,4.401,2.681,4.842,4.667C204.093,350.011,202.613,351.12,200.244,350.502z"/>
		<path fill-rule="evenodd" clip-rule="evenodd" fill="#FFFFFF" d="M262.038,422.879"/>
		<path fill-rule="evenodd" clip-rule="evenodd" fill="#FFFFFF" d="M153.563,329.763c-5.007-1.272-9.925-2.524-14.959-3.802
			c0.147-0.866,0.279-1.68,0.421-2.49c0.493-2.852,0.974-5.708,1.495-8.546c0.082-0.444-0.001-0.704-0.656-1.157
			c-2.528-1.75-4.041-4.473-3.587-6.329c0.482-1.965,2.724-2.62,5.586-1.624c2.755,0.959,5.271,3.272,6.058,5.599
			c0.71,2.105,0.135,3.458-1.668,4.04c-0.399,0.132-0.404,0.308-0.157,0.746c1.267,2.246,2.495,4.497,3.729,6.744
			C151.059,325.188,152.284,327.432,153.563,329.763z"/>
	</g>
</g>
<g id="Layer_10" display="none">
	<g display="inline">
		<path fill="none" d="M350.734,401.835c-25.431-2.816-50.87-5.693-76.303-8.335c-1.988-0.203-2.393-1.112-2.403-5.329
			c-0.229-97.484-0.532-194.974-0.906-292.476c-0.015-4.218,0.386-5.024,2.372-4.798c50.87,5.782,101.74,11.416,152.607,16.905
			c1.988,0.214,2.394,1.11,2.403,5.327c0.231,97.486,0.534,194.978,0.906,292.477c0.018,4.217-0.384,5.037-2.373,4.801
			C401.605,407.412,376.172,404.654,350.734,401.835z M317.452,343.032c1.459,0.39,2.95-0.972,4.467-2.302
			c15.252-13.382,30.511-26.713,45.765-40.083c8.934-7.827,17.873-15.618,26.78-23.557c4.673-4.163,5.909-11.187,3.782-21.47
			c-2.369-11.438-4.831-22.797-7.3-34.147c-4.556-20.977-9.087-41.972-13.741-62.855c-2.442-10.955-5.595-13.646-10.574-9.417
			c-5.14,4.365-10.241,8.926-15.349,13.447c-18.639,16.495-37.287,32.939-55.898,49.549c-7.167,6.396-8.115,12.609-4.684,28
			c2.087,9.356,4.092,18.792,6.139,28.186c4.707,21.613,9.416,43.227,14.126,64.837
			C312.208,338.912,314.136,342.611,317.452,343.032z M381.203,330.386c0,0.135-0.003,0.273-0.002,0.41
			c-8.094-0.896-16.189-1.688-24.288-2.749c-2.856-0.372-4.829,1.704-5.238,7.71c-0.316,4.66,2.234,8.873,5.508,9.004
			c6.091,0.241,12.192,1.461,18.253,2.596c9.432,1.76,18.847,2.268,28.268,3.736c1.323,0.205,2.665,0.152,3.968-0.153
			c2.061-0.478,2.96-3.494,3.146-7.577c0.198-4.343-0.849-7.455-2.728-8.928c-1.238-0.971-2.613-1.297-3.93-1.459
			C396.509,332.04,388.854,331.237,381.203,330.386z M394.889,299.388c-0.001,0.033-0.001,0.069-0.001,0.102
			c-3.662-0.406-7.324-0.854-10.985-1.205c-2.634-0.25-4.988,0.467-5.057,7.607c-0.056,5.941,1.67,9.912,4.941,10.389
			c7.432,1.081,14.871,1.844,22.307,2.584c2.896,0.286,4.549-3.064,4.783-8.989c0.205-5.181-1.758-8.722-5.002-9.231
			C402.214,300.072,398.551,299.793,394.889,299.388z"/>
		<path fill-rule="evenodd" clip-rule="evenodd" fill="#FFFFFF" d="M317.452,343.032c-3.316-0.421-5.244-4.12-6.487-9.811
			c-4.71-21.61-9.419-43.224-14.126-64.837c-2.047-9.394-4.052-18.83-6.139-28.186c-3.432-15.391-2.483-21.605,4.684-28
			c18.611-16.61,37.26-33.055,55.898-49.549c5.107-4.521,10.209-9.082,15.349-13.447c4.979-4.229,8.132-1.538,10.574,9.417
			c4.654,20.884,9.186,41.879,13.741,62.855c2.469,11.35,4.931,22.709,7.3,34.147c2.127,10.283,0.891,17.307-3.782,21.47
			c-8.907,7.938-17.847,15.729-26.78,23.557c-15.254,13.37-30.513,26.701-45.765,40.083
			C320.402,342.06,318.911,343.421,317.452,343.032z M301.703,224.081c1.206,1.334,1.659,2.034,2.159,2.357
			c13.111,8.531,26.229,17.003,39.338,25.548c1.695,1.105,2.691,0.082,3.438-3.166c6.039-26.406,12.128-52.759,18.501-80.412
			C343.847,187.092,323.148,205.258,301.703,224.081z M322.216,322.251c0.196,0.461,0.397,0.921,0.597,1.372
			c21.19-18.869,42.381-37.745,63.568-56.618c-9.21-7.033-18.068-12.342-26.923-17.638c-2.496-1.494-4.105-0.085-5.317,4.976
			c-3.757,15.686-6.468,17.809-14.622,11.84c-2.312-1.698-3.49-0.235-4.484,3.873c-3.262,13.481-6.625,26.84-9.944,40.256
			C324.113,314.269,323.172,318.274,322.216,322.251z M314.853,314.101c0.672-1.949,0.975-2.605,1.157-3.396
			c3.631-15.674,7.214-31.403,10.885-47.031c1.071-4.557-0.263-5.92-1.915-7.001c-7.636-5.001-15.275-9.954-22.914-14.91
			c-0.742-0.484-1.601-1.39-2.186,0.026c-0.694,1.688-0.046,3.578,0.312,5.269c1.451,6.784,2.928,13.547,4.408,20.303
			C307.932,282.576,311.273,297.787,314.853,314.101z M387.885,246.026c-0.123-0.709-0.212-1.4-0.354-2.053
			c-4.609-21.142-9.219-42.282-13.846-63.407c-0.272-1.242-0.366-3.147-1.151-3.278c-0.905-0.157-1.198,1.714-1.517,3.106
			c-3.454,15.065-6.854,30.19-10.343,45.215c-0.868,3.742-0.316,5.51,1.51,6.69c7.951,5.133,15.891,10.379,23.834,15.582
			C386.937,248.482,387.83,248.986,387.885,246.026z"/>
		<path fill-rule="evenodd" clip-rule="evenodd" fill="none" d="M301.703,224.081c21.445-18.822,42.144-36.989,63.436-55.672
			c-6.373,27.652-12.462,54.006-18.501,80.412c-0.746,3.248-1.742,4.271-3.438,3.166c-13.108-8.544-26.227-17.017-39.338-25.548
			C303.362,226.114,302.909,225.415,301.703,224.081z"/>
		<path fill-rule="evenodd" clip-rule="evenodd" fill="none" d="M322.216,322.251c0.956-3.978,1.897-7.982,2.874-11.939
			c3.319-13.416,6.683-26.774,9.944-40.256c0.994-4.108,2.172-5.571,4.484-3.873c8.154,5.969,10.865,3.846,14.622-11.84
			c1.212-5.061,2.821-6.47,5.317-4.976c8.854,5.296,17.713,10.604,26.923,17.638c-21.188,18.873-42.378,37.749-63.568,56.618
			C322.613,323.172,322.412,322.712,322.216,322.251z"/>
		<path fill-rule="evenodd" clip-rule="evenodd" fill="none" d="M314.853,314.101c-3.579-16.314-6.921-31.525-10.252-46.74
			c-1.48-6.756-2.957-13.52-4.408-20.303c-0.358-1.691-1.007-3.581-0.312-5.269c0.585-1.417,1.443-0.51,2.186-0.026
			c7.639,4.957,15.278,9.909,22.914,14.91c1.652,1.081,2.986,2.444,1.915,7.001c-3.671,15.628-7.254,31.357-10.885,47.031
			C315.827,311.496,315.524,312.152,314.853,314.101z"/>
		<path fill-rule="evenodd" clip-rule="evenodd" fill="none" d="M387.885,246.026c-0.055,2.959-0.948,2.456-1.866,1.855
			c-7.943-5.203-15.883-10.449-23.834-15.582c-1.826-1.18-2.378-2.948-1.51-6.69c3.489-15.025,6.889-30.15,10.343-45.215
			c0.318-1.392,0.611-3.264,1.517-3.106c0.785,0.131,0.879,2.036,1.151,3.278c4.627,21.125,9.236,42.265,13.846,63.407
			C387.673,244.626,387.762,245.317,387.885,246.026z"/>
	</g>
	<g display="inline">
		<path fill="#FFFFFF" d="M310.816,74.346c-28.557,21.048-57.141,42.091-85.596,63.163c-1.8,1.332-2.7,1.499-5.207,0.887
			c-12.147-2.971-24.483-5.809-36.758-8.694c10.561-7.805,21.146-15.603,31.652-23.42c2.225-1.656,4.272-2.422,8.071-1.614
			c12.902,2.74,12.982,2.677,23.416-3.659c0.577-0.353,1.088-0.725,1.699-1.064c2.343-1.298,1.717-2.106-0.818-2.637
			c-1.156-0.242-2.269-0.52-3.371-0.801c-12.801-3.285-14.399-1.246-2.336-9.713c4.38-3.072,8.922-3.667,14.948-2.433
			c11.828,2.419,11.703,2.389,19.922-3.777c2.775-2.081,2.105-3.179-1.627-3.987s-7.232-1.792-10.959-2.604
			c-13.224-2.89-27.807-0.509-37.872,6.159c-1.523,1.011-2.937,2.051-4.351,3.091c-8.158,5.985-8.248,6.058-19.67,3.356
			c-3.999-0.948-6.771-0.666-9.251,1.573c-0.597,0.538-1.404,1.04-2.104,1.562c-8.557,6.361-8.527,5.275,3.118,8.092
			c5.813,1.406,5.925,1.579,1.658,4.748c-10.224,7.588-20.494,15.167-30.744,22.751c-21.439-5.041-42.878-10.082-64.317-15.122
			c-1.922-1.864-0.885-3.723,1.885-5.756c26.07-19.154,52.03-38.331,78.064-57.493c4.849-3.566,8.989-4.272,15.762-2.683
			c36.37,8.531,72.687,17.098,109.081,25.614C308.973,70.785,311.221,72.085,310.816,74.346z"/>
		<path fill-rule="evenodd" clip-rule="evenodd" fill="none" d="M158.387,126.935c10.744-8.08,21.508-16.158,32.222-24.24
			c4.473-3.375,4.343-3.522-1.999-4.198c-12.703-1.353-12.687-0.349-3.721-7.123c0.733-0.555,1.583-1.104,2.204-1.663
			c2.581-2.327,5.564-2.882,9.926-2.436c12.456,1.271,12.551,1.195,21.103-5.189c1.482-1.108,2.963-2.217,4.564-3.311
			c10.584-7.218,26.234-10.965,40.649-9.713c4.059,0.352,7.885,0.886,11.949,1.231c4.07,0.347,4.842,1.286,1.934,3.5
			c-8.609,6.558-8.475,6.572-21.357,5.604c-6.565-0.494-11.446,0.538-16.044,3.835c-12.663,9.087-11.025,7.038,2.946,8.7
			c1.204,0.142,2.418,0.279,3.677,0.379c2.762,0.219,3.474,0.896,0.999,2.342c-0.645,0.378-1.181,0.776-1.79,1.162
			c-10.995,6.95-11.08,7.017-25.137,5.868c-4.139-0.339-6.319,0.585-8.649,2.348c-11.01,8.322-22.105,16.635-33.173,24.952
			C171.923,128.299,165.157,127.616,158.387,126.935z"/>
		<path fill-rule="evenodd" clip-rule="evenodd" fill="none" d="M314.086,64.382c0.336-2.127-2.148-3.084-6.357-3.504
			c-39.688-3.966-79.296-7.988-118.96-11.971c-7.385-0.741-11.828,0.35-16.91,4.153c-27.29,20.43-54.5,40.868-81.828,61.293
			c-2.903,2.169-3.942,3.993-1.785,5.504c-5.417,0.057-5.173-0.972-1.879-3.418c30.119-22.377,59.938-44.784,89.714-67.197
			c1.973-1.484,3.083-1.757,5.958-1.462c43.388,4.439,86.805,8.856,130.43,13.121C317.234,61.366,318.354,62.061,314.086,64.382z"/>
	</g>
	<path display="inline" fill-rule="evenodd" clip-rule="evenodd" fill="#FFFFFF" d="M155.417,350.354
		c-18.597-4.635-37.192-9.269-55.788-13.909c-7.323-1.822-13.549-7.735-15.288-14.51c-8.777-34.245-17.548-68.487-26.32-102.731
		c-1.859-7.261,1.877-10.595,9.7-8.648c36.993,9.216,73.989,18.435,110.984,27.656c7.438,1.857,13.62,7.725,15.385,14.604
		c8.818,34.378,17.638,68.76,26.454,103.145c1.719,6.693-2.123,10.109-9.34,8.312c-18.593-4.636-37.192-9.275-55.785-13.907
		C155.419,350.359,155.418,350.357,155.417,350.354z M180.086,260.699c-0.85-0.35-1.198-0.052-1.635,0.062
		c-2.486,0.644-5.179,0.938-7.954,1.125c-2.083,0.136-4.022-0.177-6.056-2.667c-0.102-0.13-0.266-0.23-0.4-0.345
		c-12.852-10.566-28.25-11.302-31.638-1.513c-1.206,3.478-0.916,7.534,0.989,12.217c0.625,1.541,0.532,1.582-1.15,0.979
		c-1.296-0.464-2.582-0.85-3.875-1.341c-16.252-6.093-31.009-15.98-44.233-29.752c-1.261-1.315-1.517-1.397-1.843-0.285
		c-1.679,5.734,0.144,12.25,5.585,19.582c2.255,3.034,4.978,5.751,8.024,8.241c-0.287,0.248-0.67-0.023-0.995-0.142
		c-2.561-0.929-5.102-2.104-7.626-3.702c-1.209-0.765-1.466-0.591-1.076,0.56c2.508,7.396,7.566,13.851,15.14,19.384
		c2.182,1.595,4.468,2.817,6.761,4.097c-2.377-0.019-4.866-0.463-7.527-1.486c-1.354-0.521-1.337-0.117-0.623,0.994
		c5.195,8.089,12.163,13.806,20.843,17.271c0.72,0.284,1.422,0.254,2.403,0.998c-7.908,4.157-17.731,4.308-29.72,0.305
		c0.211,0.683,0.738,0.914,1.129,1.189c3.497,2.466,7.055,4.745,10.692,6.777c11.273,6.302,22.183,9.967,32.807,11.429
		c16.2,2.237,27.782-1.712,35.075-11.24c4.572-5.979,6.441-13.699,6.099-22.696c-0.144-3.827-0.782-7.838-1.955-11.996
		c-0.29-1.036-0.284-1.638,0.468-2.023c2.933-1.505,5.128-3.716,6.812-6.396c0.151-0.235,0.542-0.379,0.101-1.027
		c-3.262,0.552-6.777,0.564-10.655-0.06C177.465,267.511,179.611,264.819,180.086,260.699z"/>
</g>
<g id="Layer_11">
	<g>
		<path fill="none" d="M276.972,323.647c-18.446-20.547-36.887-41.101-55.367-61.622c-0.594-0.656-0.496-0.957,0.578-1.816
			c52.707-42.138,105.399-84.297,158.068-126.476c1.075-0.859,1.399-0.899,1.994-0.239c29.017,32.39,58.068,64.755,87.153,97.092
			c0.592,0.659,0.499,0.957-0.575,1.818c-33.475,26.741-66.928,53.516-100.381,80.282c-0.071-0.304-0.093-0.644-0.223-0.912
			c-1.567-3.191-3.113-6.396-4.757-9.536c-0.419-0.81-0.282-1.511,0.621-2.536c2.286-2.592,4.248-5.3,5.869-8.078
			c0.574-0.979,1.187-1.452,2.309-1.736c4.854-1.248,9.727-2.607,14.584-3.849c1.373-0.353,2.055-0.871,2.431-2.138
			c1.007-3.438,2.11-6.888,3.276-10.346c0.385-1.133,0.085-1.504-1.063-1.524c-4.445-0.08-8.838-0.272-13.282-0.353
			c-1.14-0.02-1.596-0.416-1.568-1.444c0.054-2.486-0.25-4.835-1.021-6.952c-0.364-0.999,0.097-1.825,1.161-2.876
			c3.757-3.707,7.416-7.477,11.18-11.172c1.146-1.117,1.282-1.786,0.596-2.521c-1.867-1.981-3.712-3.982-5.435-6.075
			c-0.767-0.927-1.635-0.827-3.148,0.171c-4.35,2.868-8.752,5.634-13.113,8.471c-1.303,0.851-2.314,1.173-3.335,0.616
			c-1.966-1.069-4.316-1.664-6.823-2.002c-1.194-0.16-1.592-0.683-1.422-1.861c0.583-4.041,1.012-8.041,1.596-12.083
			c0.17-1.166-0.121-1.62-1.543-1.419c-3.805,0.532-7.586,0.971-11.349,1.366c-1.196,0.126-1.813,0.505-2.358,1.667
			c-1.978,4.217-4.108,8.427-6.089,12.645c-0.597,1.262-1.312,2.013-2.82,2.51c-3.048,1-6.079,2.364-9.047,4.004
			c-1.185,0.655-1.946,0.736-2.739,0.187c-2.95-2.046-6.042-3.954-9.033-5.962c-0.805-0.541-1.545-0.463-2.723,0.502
			c-3.418,2.796-6.869,5.551-10.347,8.281c-1.193,0.938-1.378,1.579-0.914,2.429c1.697,3.105,3.262,6.299,4.932,9.423
			c0.361,0.664,0.23,1.245-0.521,2.102c-2.372,2.689-4.468,5.475-6.139,8.368c-0.585,1.011-1.301,1.401-2.368,1.671
			c-4.856,1.229-9.724,2.547-14.576,3.767c-1.228,0.312-1.839,0.767-2.182,1.909c-1.04,3.491-2.155,6.993-3.337,10.504
			c-0.376,1.126-0.063,1.483,1.081,1.519c4.366,0.128,8.67,0.386,13.027,0.534c1.102,0.04,1.612,0.382,1.572,1.438
			c-0.097,2.408,0.157,4.691,0.929,6.706c0.495,1.287-0.121,2.331-1.496,3.678C284.826,315.697,280.918,319.684,276.972,323.647z
			 M348.981,219.859c0.897-0.879,1.574-0.89,2.238-0.895c1.93-0.017,3.924-0.191,5.991-0.691c1.424-0.345,2.043,0.019,2.385,0.958
			c0.853,2.357,1.853,4.637,2.694,7.003c0.3,0.836,0.831,0.958,2.01,0.417c2.839-1.299,5.687-2.573,8.537-3.767
			c1.296-0.542,1.7-1.143,1.76-2.167c0.17-2.856,0.502-5.766,0.67-8.623c0.057-0.948,0.399-1.583,1.505-2.39
			c2.051-1.493,4.036-3.108,5.951-4.761c0.88-0.757,1.503-1.045,2.416-0.943c3.052,0.342,6.183,0.538,9.224,0.895
			c1.138,0.134,1.851-0.118,2.685-1.319c1.64-2.361,3.367-4.702,5.154-7.019c0.948-1.228,0.815-1.809-0.141-2.295
			c-2.36-1.208-4.581-2.573-6.938-3.782c-0.776-0.401-0.89-0.955-0.451-1.913c0.9-1.958,1.533-3.897,1.833-5.783
			c0.148-0.952,0.726-1.549,1.784-2.157c3.453-1.976,6.872-4.038,10.315-6.041c1.027-0.597,1.478-1.174,1.339-2.031
			c-0.355-2.224-0.674-4.463-0.924-6.732c-0.105-0.957-0.699-1.023-1.845-0.652c-3.46,1.12-6.912,2.134-10.368,3.248
			c-1.139,0.365-1.892,0.331-2.365-0.381c-0.88-1.322-1.877-2.564-3.166-3.565c-0.683-0.528-0.601-1.262-0.034-2.265
			c1.692-2.989,3.269-5.987,4.979-8.97c0.688-1.2,0.686-1.826-0.503-2.116c-2.204-0.541-4.328-1.198-6.404-1.917
			c-1.05-0.361-1.771-0.003-2.734,1.063c-2.622,2.897-5.34,5.745-7.973,8.63c-0.659,0.721-1.225,1.061-2.067,1.054
			c-2.079-0.012-4.256,0.219-6.498,0.719c-1.261,0.283-1.825-0.053-2.143-0.886c-0.868-2.3-1.856-4.533-2.714-6.839
			c-0.367-0.986-0.99-1.247-2.511-0.524c-2.596,1.238-5.212,2.386-7.827,3.458c-1.473,0.603-2.088,1.241-2.122,2.498
			c-0.078,2.779-0.382,5.633-0.485,8.418c-0.039,1.06-0.552,1.747-1.748,2.487c-1.99,1.237-3.841,2.722-5.478,4.346
			c-0.97,0.963-1.703,1.247-2.716,1.126c-2.938-0.35-5.944-0.574-8.863-0.952c-1.263-0.164-2.089,0.182-3.002,1.5
			c-1.6,2.309-3.286,4.604-5.06,6.858c-0.981,1.249-0.791,1.798,0.118,2.285c2.327,1.248,4.532,2.624,6.857,3.869
			c0.715,0.383,0.815,0.892,0.418,1.8c-0.875,2.005-1.626,4.007-1.938,5.949c-0.146,0.917-0.647,1.55-1.764,2.176
			c-3.345,1.879-6.645,3.902-9.993,5.779c-1.338,0.751-1.695,1.395-1.519,2.393c0.366,2.07,0.676,4.171,0.872,6.314
			c0.1,1.088,0.729,1.194,2.023,0.789c3.452-1.077,6.901-2.03,10.356-3.097c1.12-0.346,1.776-0.189,2.128,0.503
			c0.734,1.443,1.77,2.643,3.173,3.548c0.677,0.437,0.731,1.061,0.153,2.058c-1.698,2.93-3.229,5.882-4.978,8.803
			c-0.847,1.418-0.843,2.111,0.557,2.422c2.034,0.455,3.995,1.042,5.845,1.75c1.291,0.492,2.179,0.133,3.441-1.273
			C343.728,225.323,346.485,222.5,348.981,219.859z"/>
		<path fill-rule="evenodd" clip-rule="evenodd" fill="#FFFFFF" d="M276.972,323.647c3.946-3.963,7.854-7.95,11.861-11.874
			c1.375-1.347,1.991-2.391,1.496-3.678c-0.771-2.015-1.025-4.298-0.929-6.706c0.04-1.056-0.471-1.397-1.572-1.438
			c-4.357-0.148-8.661-0.406-13.027-0.534c-1.145-0.035-1.457-0.393-1.081-1.519c1.182-3.511,2.297-7.013,3.337-10.504
			c0.343-1.143,0.954-1.598,2.182-1.909c4.853-1.22,9.72-2.538,14.576-3.767c1.067-0.27,1.783-0.66,2.368-1.671
			c1.671-2.894,3.767-5.679,6.139-8.368c0.752-0.856,0.883-1.438,0.521-2.102c-1.67-3.124-3.234-6.317-4.932-9.423
			c-0.464-0.85-0.279-1.491,0.914-2.429c3.478-2.73,6.929-5.485,10.347-8.281c1.178-0.965,1.918-1.043,2.723-0.502
			c2.991,2.008,6.083,3.916,9.033,5.962c0.793,0.55,1.555,0.469,2.739-0.187c2.968-1.64,5.999-3.004,9.047-4.004
			c1.509-0.497,2.224-1.248,2.82-2.51c1.98-4.218,4.111-8.428,6.089-12.645c0.545-1.162,1.162-1.54,2.358-1.667
			c3.763-0.395,7.544-0.833,11.349-1.366c1.422-0.2,1.713,0.254,1.543,1.419c-0.584,4.042-1.013,8.042-1.596,12.083
			c-0.17,1.179,0.228,1.701,1.422,1.861c2.507,0.338,4.857,0.933,6.823,2.002c1.021,0.557,2.032,0.234,3.335-0.616
			c4.361-2.837,8.764-5.603,13.113-8.471c1.514-0.998,2.382-1.098,3.148-0.171c1.723,2.093,3.567,4.094,5.435,6.075
			c0.687,0.735,0.551,1.404-0.596,2.521c-3.764,3.695-7.423,7.465-11.18,11.172c-1.064,1.051-1.525,1.877-1.161,2.876
			c0.771,2.117,1.075,4.466,1.021,6.952c-0.027,1.028,0.429,1.425,1.568,1.444c4.444,0.08,8.837,0.272,13.282,0.353
			c1.148,0.021,1.448,0.392,1.063,1.524c-1.166,3.458-2.27,6.908-3.276,10.346c-0.376,1.267-1.058,1.785-2.431,2.138
			c-4.857,1.241-9.729,2.601-14.584,3.849c-1.122,0.284-1.734,0.757-2.309,1.736c-1.621,2.778-3.583,5.486-5.869,8.078
			c-0.903,1.025-1.04,1.727-0.621,2.536c1.644,3.14,3.189,6.345,4.757,9.536c0.13,0.269,0.151,0.608,0.223,0.912
			c-4.493,3.598-8.99,7.193-13.485,10.789c-3.37-2.299-6.761-4.586-10.102-6.913c-0.552-0.386-1.139-0.175-1.884,0.232
			c-3.263,1.774-6.575,3.273-9.927,4.413c-1.117,0.381-1.697,0.935-2.175,1.914c-2.126,4.369-4.366,8.734-6.499,13.104
			c-0.515,1.057-1.103,1.464-2.241,1.583c-3.761,0.398-7.538,0.828-11.345,1.368c-1.5,0.214-1.824-0.248-1.626-1.489
			c0.628-4.001,1.136-7.974,1.682-11.952c0.102-0.748,0.299-1.532-0.72-1.658c-3.043-0.384-5.749-1.24-8.232-2.392
			c-0.584-0.27-1.24-0.094-1.97,0.369c-5.17,3.291-10.34,6.585-15.514,9.877C281.927,329.169,279.448,326.408,276.972,323.647z
			 M323.258,274.716c-9.283,7.119-14.15,18.77-8.238,25.622c5.353,6.2,17.986,4.575,27.985-3.404
			c10.092-8.055,13.737-19.304,8.258-25.477C345.693,265.191,333.407,266.618,323.258,274.716z"/>
		<path fill-rule="evenodd" clip-rule="evenodd" fill="none" d="M284.405,331.93c5.174-3.292,10.344-6.586,15.514-9.877
			c0.729-0.463,1.386-0.639,1.97-0.369c2.483,1.151,5.189,2.008,8.232,2.392c1.019,0.126,0.821,0.91,0.72,1.658
			c-0.546,3.979-1.054,7.951-1.682,11.952c-0.198,1.241,0.126,1.703,1.626,1.489c3.807-0.54,7.584-0.97,11.345-1.368
			c1.139-0.119,1.727-0.526,2.241-1.583c2.133-4.369,4.373-8.734,6.499-13.104c0.478-0.979,1.058-1.533,2.175-1.914
			c3.352-1.14,6.664-2.639,9.927-4.413c0.745-0.407,1.332-0.618,1.884-0.232c3.341,2.327,6.731,4.614,10.102,6.913
			c-14.795,11.837-29.59,23.668-44.365,35.529c-0.934,0.748-1.229,0.783-1.742,0.208
			C300.729,350.095,292.562,341.017,284.405,331.93z"/>
		<path fill-rule="evenodd" clip-rule="evenodd" fill="#FFFFFF" d="M348.981,219.859c-2.496,2.642-5.254,5.464-7.857,8.368
			c-1.263,1.406-2.15,1.765-3.441,1.273c-1.85-0.707-3.811-1.294-5.845-1.75c-1.399-0.311-1.403-1.004-0.557-2.422
			c1.748-2.921,3.279-5.873,4.978-8.803c0.578-0.997,0.523-1.622-0.153-2.058c-1.403-0.905-2.438-2.105-3.173-3.548
			c-0.352-0.692-1.008-0.849-2.128-0.503c-3.455,1.067-6.904,2.021-10.356,3.097c-1.295,0.405-1.924,0.299-2.023-0.789
			c-0.196-2.143-0.506-4.244-0.872-6.314c-0.177-0.998,0.181-1.642,1.519-2.393c3.349-1.877,6.648-3.899,9.993-5.779
			c1.116-0.626,1.617-1.259,1.764-2.176c0.312-1.942,1.062-3.944,1.938-5.949c0.397-0.908,0.297-1.417-0.418-1.8
			c-2.325-1.246-4.53-2.622-6.857-3.869c-0.909-0.487-1.1-1.037-0.118-2.285c1.773-2.254,3.46-4.549,5.06-6.858
			c0.913-1.318,1.739-1.663,3.002-1.5c2.919,0.378,5.926,0.603,8.863,0.952c1.013,0.121,1.746-0.163,2.716-1.126
			c1.637-1.624,3.487-3.109,5.478-4.346c1.196-0.74,1.709-1.427,1.748-2.487c0.104-2.785,0.407-5.639,0.485-8.418
			c0.034-1.257,0.649-1.895,2.122-2.498c2.615-1.072,5.231-2.221,7.827-3.458c1.521-0.723,2.144-0.462,2.511,0.524
			c0.857,2.306,1.846,4.54,2.714,6.839c0.317,0.833,0.882,1.168,2.143,0.886c2.242-0.5,4.419-0.731,6.498-0.719
			c0.843,0.007,1.408-0.333,2.067-1.054c2.633-2.885,5.351-5.732,7.973-8.63c0.963-1.066,1.685-1.424,2.734-1.063
			c2.076,0.72,4.2,1.377,6.404,1.917c1.188,0.291,1.191,0.917,0.503,2.116c-1.71,2.983-3.286,5.981-4.979,8.97
			c-0.566,1.002-0.648,1.736,0.034,2.265c1.289,1,2.286,2.243,3.166,3.565c0.474,0.712,1.227,0.746,2.365,0.381
			c3.456-1.114,6.908-2.127,10.368-3.248c1.146-0.371,1.739-0.304,1.845,0.652c0.25,2.269,0.568,4.508,0.924,6.732
			c0.139,0.857-0.312,1.434-1.339,2.031c-3.443,2.003-6.862,4.065-10.315,6.041c-1.059,0.608-1.636,1.206-1.784,2.157
			c-0.3,1.885-0.933,3.825-1.833,5.783c-0.438,0.958-0.325,1.512,0.451,1.913c2.356,1.209,4.577,2.575,6.938,3.782
			c0.956,0.487,1.089,1.068,0.141,2.295c-1.787,2.316-3.515,4.657-5.154,7.019c-0.834,1.201-1.547,1.453-2.685,1.319
			c-3.041-0.357-6.172-0.553-9.224-0.895c-0.913-0.103-1.536,0.186-2.416,0.943c-1.915,1.653-3.9,3.268-5.951,4.761
			c-1.105,0.807-1.448,1.442-1.505,2.39c-0.168,2.857-0.5,5.767-0.67,8.623c-0.06,1.024-0.464,1.625-1.76,2.167
			c-2.851,1.194-5.698,2.468-8.537,3.767c-1.179,0.541-1.71,0.419-2.01-0.417c-0.842-2.366-1.842-4.646-2.694-7.003
			c-0.342-0.939-0.961-1.303-2.385-0.958c-2.067,0.5-4.062,0.675-5.991,0.691C350.556,218.969,349.879,218.98,348.981,219.859z
			 M371.261,197.876c7.644-6.076,10.59-14.772,6.283-19.439c-4.327-4.689-13.354-3.736-21.345,2.509
			c-7.685,6.003-10.357,14.641-6.236,19.47C353.989,205.132,363.571,203.989,371.261,197.876z"/>
		<path fill-rule="evenodd" clip-rule="evenodd" fill="none" d="M323.258,274.716c10.149-8.099,22.436-9.525,28.005-3.259
			c5.479,6.173,1.834,17.422-8.258,25.477c-9.999,7.979-22.633,9.604-27.985,3.404C309.107,293.486,313.975,281.835,323.258,274.716
			z"/>
		<path fill-rule="evenodd" clip-rule="evenodd" fill="none" d="M371.261,197.876c-7.689,6.113-17.271,7.256-21.298,2.54
			c-4.121-4.829-1.448-13.467,6.236-19.47c7.991-6.245,17.018-7.198,21.345-2.509C381.851,183.104,378.904,191.8,371.261,197.876z"
			/>
	</g>
	<g>
		<path fill-rule="evenodd" clip-rule="evenodd" fill="#FFFFFF" d="M250.108,128.421c-22.502,12.648-55.391,18.731-84.211,13.436
			c-31.489-5.786-46.311-22.638-46.841-37.192c4.254-0.402,8.506-0.815,12.759-1.206c22.095-2.032,44.19-4.064,66.285-6.058
			c0.767-0.069,1.754,0.131,2.255,0.436c16.36,9.984,32.674,19.996,48.989,30.006C249.63,128.017,249.855,128.229,250.108,128.421z"
			/>
		<path fill-rule="evenodd" clip-rule="evenodd" fill="#FFFFFF" d="M115.985,96.894c0.208-30.206,51.319-59.701,104.596-55.39
			c-0.386,0.722-0.769,1.441-1.152,2.16c-7.936,14.862-15.897,29.719-23.758,44.588c-0.589,1.112-1.382,1.438-3.137,1.597
			c-22.034,1.997-44.068,4.043-66.104,6.077C122.997,96.242,119.565,96.562,115.985,96.894z"/>
		<path fill-rule="evenodd" clip-rule="evenodd" fill="#FFFFFF" d="M278.24,65.199c15.268,18.508,5.709,42.608-20.605,58.635
			c-16.111-9.895-32.22-19.786-48.464-29.763C232.302,84.401,255.208,74.827,278.24,65.199z"/>
		<path fill-rule="evenodd" clip-rule="evenodd" fill="#FFFFFF" d="M273.152,58.754c-22.426,9.671-44.668,19.262-67.284,29.015
			c8.371-15.693,16.604-31.13,24.918-46.716C249.176,43.596,263.207,49.431,273.152,58.754z"/>
	</g>
	<g>
		<path fill-rule="evenodd" clip-rule="evenodd" fill="#F4F8FC" d="M175.579,336.871c1.229,6.478,2.462,12.957,3.688,19.433
			c1.512,7.984-0.81,10.848-5.998,5.879c-1.99-1.905-2.48-1.606-3.572-0.954c-5.227,3.097-11.352-2.065-15.399-12.926
			c-2.598-6.972-3.839-13.617-3.421-19.646c0.559-8.021,4.528-11.056,10.918-6.979c3.756,2.396,3.274,0.143,2.398-3.689
			c-0.388-1.689-0.656-3.364-0.967-5.038c-1.072-5.779,2.309-8.244,6.123-4.51c1.422,1.394,1.395,3.11,1.699,4.675
			C172.594,321.041,174.073,328.95,175.579,336.871z M168.782,342.219c-0.319-1.676-0.572-3.336-0.968-5.021
			c-0.48-2.037-0.299-4.396-2.184-5.974c-2.008-1.684-3.782-1.9-5.033-0.557c-2.125,2.291-1.434,6.806-0.482,11.459
			c1.13,5.521,2.879,10.51,7.143,11.583c4.205,1.057,3.185-3.813,2.075-8.623C169.109,344.124,168.966,343.174,168.782,342.219z"/>
		<path fill-rule="evenodd" clip-rule="evenodd" fill="#F1F6FB" d="M121.183,333.831c3.721,12.641,3.314,14.2-3.387,14.382
			c-10.101,0.273-19.156-9.017-24.177-24.803c-5.489-17.257-3.311-30.542,5.207-31.642c2.647-0.336,5.564,0.494,8.57,2.068
			c7.57,3.956,8.763,6.232,9.655,18.364c-4.111-4.45-8.142-10.004-12.317-9.613c-1.852,0.17-3.168,1.426-3.904,3.729
			c-1.912,5.973,0.75,18.878,5.333,25.737C110.684,338.815,115.07,339.416,121.183,333.831z"/>
		<path fill-rule="evenodd" clip-rule="evenodd" fill="#F4F8FC" d="M199.971,371.07c-10.873-3.044-18.478-14.467-19.892-29.438
			c-1.098-11.624,3.425-16.936,11.689-13.73c6.839,2.652,12.008,10.999,14.188,22.44c0.729,3.828,0.187,4.773-2.198,3.991
			c-3.836-1.256-7.612-2.131-11.378-2.995c-0.918-0.208-2.47-1.619-2.472,0.545c-0.002,1.655,1.024,3.35,1.925,4.815
			c2.922,4.763,7.909,6.553,12.244,4.928c0.927-0.349,1.854-3.896,3.436,0.506c1.092,3.034,2.845,7.785,0.124,8.807
			C205.233,371.84,202.612,372.084,199.971,371.07z M192.649,344.828c1.123-1.218,4.486,3.006,3.925-1.393
			c-0.457-3.574-2.641-6.629-5.185-7.394c-2.673-0.802-4.256,1.092-3.472,5.006C188.855,345.75,191.002,342.799,192.649,344.828z"/>
		<path fill-rule="evenodd" clip-rule="evenodd" fill="#F4F8FC" d="M132.428,312.266c8.048,2.128,14.611,11.663,17.168,24.933
			c2.625,13.628-0.859,20.505-9.24,18.232c-8.149-2.203-14.583-11.541-17.148-24.894
			C120.582,316.872,124.022,310.047,132.428,312.266z M131.309,332.429c0.469,1.919,0.809,3.854,1.432,5.759
			c1.272,3.888,3.103,7.172,5.817,8.001c2.943,0.897,3.845-1.724,3.596-5.651c-0.274-4.317-1.151-8.829-3.096-13.5
			c-1.355-3.247-3.128-5.104-5.058-5.595c-1.941-0.503-3.086,0.666-3.284,3.513C130.553,327.296,130.832,329.78,131.309,332.429z"/>
		<path fill-rule="evenodd" clip-rule="evenodd" fill="#F1F6FB" d="M87.877,229.87c7.966,6.439,15.014,12.473,22.091,17.719
			c3.845,2.85,4.637,6.49,5.287,10.943c0.384,2.647-0.223,3.071-1.935,1.661c-10.991-9.039-21.978-18.143-32.979-27.001
			c-2.537-2.043-2.297-4.52-2.977-6.998c-0.94-3.435,0.139-4.199,1.632-4.852c7.743-3.374,15.377-7.005,23.135-10.34
			c1.114-0.481,2.523-3.251,3.9,0.41c1.271,3.386,3.219,8.714,0.236,10.051c-4.77,2.138-9.575,4.197-14.354,6.32
			C90.828,228.263,89.799,228.87,87.877,229.87z"/>
		<path fill-rule="evenodd" clip-rule="evenodd" fill="#F1F6FB" d="M156.955,272.703c-2.918-7.948-2.819-12.175,1.624-13.375
			c5.31-1.429,10.101-4.247,15.961-6.838c-7.16-5.878-13.382-11.009-19.606-16.088c-6.576-5.37-6.578-5.348-8.224-16.185
			c5.412,4.373,10.63,8.559,15.844,12.807c6.291,5.129,12.573,10.37,18.87,15.429c1.831,1.472,2.923,3.192,3.316,5.984
			c0.355,2.525,1.21,5.166-0.675,5.989C174.982,264.384,166.001,268.58,156.955,272.703z"/>
		<path fill-rule="evenodd" clip-rule="evenodd" fill="#F1F6FB" d="M130.443,279.681c-2.814-0.051-3.908-1.785-3.829-6.655
			c0.341-20.824,0.413-41.839,0.603-62.77c0.036-4.027,3.938-5.616,6.614-2.845c1.379,1.425,0.921,2.553,0.911,3.721
			c-0.208,22.004-0.501,43.951-0.587,66.036C134.139,280.88,132.518,280.281,130.443,279.681z"/>
		<path fill-rule="evenodd" clip-rule="evenodd" fill="#2C6DB6" d="M187.917,341.047"/>
		<path fill-rule="evenodd" clip-rule="evenodd" fill="#2C6DB6" d="M196.574,343.435"/>
	</g>
</g>
</svg>
